<?xml version="1.0" encoding="utf-8"?>
<!-- Generator: Adobe Illustrator 26.3.1, SVG Export Plug-In . SVG Version: 6.00 Build 0)  -->
<svg version="1.1" id="Layer_1" xmlns="http://www.w3.org/2000/svg" xmlns:xlink="http://www.w3.org/1999/xlink" x="0px" y="0px"
	 viewBox="0 0 512 512" style="enable-background:new 0 0 512 512;" xml:space="preserve">
<style type="text/css">
	.st0{fill:#FFFFFF;}
</style>
<g>
	<g>
		<g>
			<path class="st0" d="M381.2,163.5c-4,2.6-5.1,7.9-2.5,11.8c9,13.8,13.8,29.9,13.8,46.5c0,4.7,3.8,8.5,8.5,8.5
				c4.7,0,8.5-3.8,8.5-8.5c0-19.9-5.7-39.2-16.6-55.9C390.5,162.1,385.2,160.9,381.2,163.5z"/>
			<path class="st0" d="M196.1,157.7c3.9,2.6,9.2,1.6,11.8-2.3c22.3-33.2,59.4-53,99.3-53c65.9,0,119.5,53.6,119.5,119.5
				c0,10.8-1.5,21.5-4.3,31.9c-1.3,4.5,1.4,9.2,6,10.5c0.8,0.2,1.5,0.3,2.3,0.3c3.7,0,7.2-2.5,8.2-6.3c3.3-11.8,4.9-24.1,4.9-36.4
				c0-75.3-61.3-136.5-136.5-136.5c-45.6,0-88,22.6-113.4,60.5C191.1,149.8,192.2,155.1,196.1,157.7z"/>
			<path class="st0" d="M44.2,281.7c0.5,0,1-0.1,1.6-0.1c4.6-0.8,7.7-5.3,6.9-9.9c-0.9-5.1-1.4-10.4-1.4-15.6
				c0-47.1,38.3-85.3,85.3-85.3c23.6,0,45.5,9.4,61.8,26.5c3.2,3.4,8.7,3.5,12.1,0.3c3.4-3.3,3.5-8.7,0.3-12.1
				c-19.5-20.5-45.9-31.8-74.1-31.8c-56.5,0-102.4,45.9-102.4,102.4c0,6.3,0.6,12.5,1.7,18.7C36.6,278.8,40.2,281.7,44.2,281.7z"/>
			<path class="st0" d="M468.6,240.6c-3.9-2.7-9.2-1.8-11.9,2c-2.7,3.8-1.8,9.2,2,11.9c22.6,16,36.2,42.1,36.2,69.7
				c0,47.1-38.3,85.3-85.3,85.3H68.3c-28.2,0-51.2-23-51.2-51.2s23-51.2,51.2-51.2c4.7,0,8.5-3.8,8.5-8.5s-3.8-8.5-8.5-8.5
				C30.6,290.1,0,320.8,0,358.4s30.6,68.3,68.3,68.3h341.3c56.5,0,102.4-45.9,102.4-102.4C512,291.1,495.8,259.8,468.6,240.6z"/>
			<path class="st0" d="M97.5,200c-12.6,8.8-22,21.8-26.4,36.5c-1.3,4.5,1.2,9.3,5.7,10.6c0.8,0.2,1.6,0.4,2.4,0.4
				c3.7,0,7.1-2.4,8.2-6.1c3.3-11,10.3-20.7,19.8-27.4c3.9-2.7,4.8-8,2.1-11.9C106.7,198.3,101.4,197.3,97.5,200z"/>
		</g>
	</g>
</g>
</svg>
