<?xml version="1.0" encoding="utf-8"?>
<!-- Generator: Adobe Illustrator 26.3.1, SVG Export Plug-In . SVG Version: 6.00 Build 0)  -->
<svg version="1.1" id="Layer_1" xmlns="http://www.w3.org/2000/svg" xmlns:xlink="http://www.w3.org/1999/xlink" x="0px" y="0px"
	 viewBox="0 0 512 512" style="enable-background:new 0 0 512 512;" xml:space="preserve">
<style type="text/css">
	.st0{fill:#FFFFFF;}
</style>
<g>
	<g>
		<g>
			<path class="st0" d="M261.3,198.3c5,0,9.1-4.1,9.1-9.1v-21.6c0-5-4.1-9.1-9.1-9.1s-9.1,4.1-9.1,9.1v21.6
				C252.2,194.2,256.2,198.3,261.3,198.3z"/>
			<path class="st0" d="M270.4,352.5V226.8c0-5-4.1-9.1-9.1-9.1s-9.1,4.1-9.1,9.1v125.7c-19.9,4.2-34.8,21.9-34.8,43
				c0,24.2,19.7,43.9,43.9,43.9s43.9-19.7,43.9-43.9C305.2,374.4,290.2,356.7,270.4,352.5z M261.3,421.2
				c-14.2,0-25.7-11.5-25.7-25.7c0-14.2,11.5-25.7,25.7-25.7c14.2,0,25.7,11.5,25.7,25.7C287,409.6,275.4,421.2,261.3,421.2z"/>
			<path class="st0" d="M310.8,313.6v-242c0-26.8-21.8-48.6-48.6-48.6c-26.8,0-48.6,21.8-48.6,48.6v240.8c-29.2,17-47,47.8-47,81.9
				c0,52.2,42.5,94.7,94.7,94.7s94.7-42.5,94.7-94.7C356,361.2,338.8,330.8,310.8,313.6z M261.3,470.8c-42.2,0-76.5-34.3-76.5-76.5
				c0-29,16.1-55.2,42-68.3c3.1-1.5,5-4.7,5-8.1V71.6c0-16.8,13.6-30.4,30.4-30.4c16.8,0,30.4,13.6,30.4,30.4v5.9h-17.2
				c-5,0-9.1,4.1-9.1,9.1c0,5,4.1,9.1,9.1,9.1h17.2v21.3h-17.2c-5,0-9.1,4.1-9.1,9.1s4.1,9.1,9.1,9.1h17.2v183.5
				c0,3.4,1.8,6.4,4.8,8c24.9,13.4,40.4,39.2,40.4,67.4C337.8,436.5,303.5,470.8,261.3,470.8z"/>
		</g>
	</g>
</g>
</svg>
