<?xml version="1.0" encoding="utf-8"?>
<!-- Generator: Adobe Illustrator 26.3.1, SVG Export Plug-In . SVG Version: 6.00 Build 0)  -->
<svg version="1.1" id="Layer_1" xmlns="http://www.w3.org/2000/svg" xmlns:xlink="http://www.w3.org/1999/xlink" x="0px" y="0px"
	 viewBox="0 0 512 512" style="enable-background:new 0 0 512 512;" xml:space="preserve">
<style type="text/css">
	.st0{fill:#FFFFFF;}
</style>
<g>
	<path class="st0" d="M346.2,128c0-32-26-58-58-58h-10v30h10c15.4,0,28,12.6,28,28s-12.6,28-28,28h-259v30h259
		C320.2,186,346.2,160,346.2,128z"/>
	<path class="st0" d="M363.2,326h-334v30h334c15.4,0,28,12.6,28,28s-12.6,28-28,28h-10v30h10c32,0,58-26,58-58S395.2,326,363.2,326z
		"/>
	<rect x="165.2" y="241" class="st0" width="319" height="30"/>
	<rect x="27.8" y="241" class="st0" width="107.4" height="30"/>
</g>
</svg>
